<svg width="31" height="24" viewBox="0 0 31 24" fill="none" xmlns="http://www.w3.org/2000/svg">
<path d="M30.4421 17.0679C30.4421 18.3291 29.4201 19.3511 28.159 19.3511C26.8978 19.3511 25.8758 18.3291 25.8758 17.0679C25.8758 15.8068 26.8978 14.7848 28.159 14.7848C29.4201 14.7848 30.4421 15.8068 30.4421 17.0679ZM23.8898 11.9451C23.8898 18.5424 18.5415 23.8903 11.9442 23.8903C5.34787 23.8903 0 18.5424 0 11.9446C0 5.34828 5.34741 -5.72205e-05 11.9447 -5.72205e-05C18.5415 -5.72205e-05 23.8898 5.34782 23.8898 11.9451Z" fill="#9B70D2"/>
<path fill-rule="evenodd" clip-rule="evenodd" d="M11.9455 18.4355C8.36084 18.4355 5.45508 15.5298 5.45508 11.9452C5.45508 8.36053 8.36084 5.45477 11.9455 5.45477C14.2619 5.45477 16.2952 6.66901 17.4434 8.49555L14.9877 10.5973C14.4701 9.43132 13.3027 8.61838 11.945 8.61838C10.1082 8.61838 8.6187 10.1078 8.6187 11.9452C8.6187 13.7825 10.1081 15.2719 11.9455 15.2719C13.3027 15.2719 14.4701 14.459 14.9877 13.2935L17.4434 15.3948C16.2947 17.2213 14.2619 18.4355 11.9455 18.4355Z" fill="white"/>
</svg>
